<?xml version="1.0" encoding="utf-8" standalone="no"?>
<!DOCTYPE svg PUBLIC "-//W3C//DTD SVG 1.1//EN" "http://www.w3.org/Graphics/SVG/1.1/DTD/svg11.dtd">
<svg width="1024" height="768" version="1.1" xmlns:xlink="http://www.w3.org/1999/xlink" xmlns="http://www.w3.org/2000/svg">
  <polyline points="36.505,698.9887 32.505,698.9887" style="fill:none;stroke:black;stroke-width:1" />
  <polyline points="36.505,645.2698 32.505,645.2698" style="fill:none;stroke:black;stroke-width:1" />
  <polyline points="36.505,618.4104 32.505,618.4104" style="fill:none;stroke:black;stroke-width:1" />
  <polyline points="36.505,591.5509 32.505,591.5509" style="fill:none;stroke:black;stroke-width:1" />
  <polyline points="36.505,564.6915 32.505,564.6915" style="fill:none;stroke:black;stroke-width:1" />
  <polyline points="36.505,510.9726 32.505,510.9726" style="fill:none;stroke:black;stroke-width:1" />
  <polyline points="36.505,484.1132 32.505,484.1132" style="fill:none;stroke:black;stroke-width:1" />
  <polyline points="36.505,457.2538 32.505,457.2538" style="fill:none;stroke:black;stroke-width:1" />
  <polyline points="36.505,430.3943 32.505,430.3943" style="fill:none;stroke:black;stroke-width:1" />
  <polyline points="36.505,376.6755 32.505,376.6755" style="fill:none;stroke:black;stroke-width:1" />
  <polyline points="36.505,349.816 32.505,349.816" style="fill:none;stroke:black;stroke-width:1" />
  <polyline points="36.505,322.9566 32.505,322.9566" style="fill:none;stroke:black;stroke-width:1" />
  <polyline points="36.505,296.0972 32.505,296.0972" style="fill:none;stroke:black;stroke-width:1" />
  <polyline points="36.505,242.3783 32.505,242.3783" style="fill:none;stroke:black;stroke-width:1" />
  <polyline points="36.505,215.5189 32.505,215.5189" style="fill:none;stroke:black;stroke-width:1" />
  <polyline points="36.505,188.6594 32.505,188.6594" style="fill:none;stroke:black;stroke-width:1" />
  <polyline points="36.505,161.8 32.505,161.8" style="fill:none;stroke:black;stroke-width:1" />
  <polyline points="36.505,108.0811 32.505,108.0811" style="fill:none;stroke:black;stroke-width:1" />
  <polyline points="36.505,81.2217 32.505,81.2217" style="fill:none;stroke:black;stroke-width:1" />
  <polyline points="36.505,54.3623 32.505,54.3623" style="fill:none;stroke:black;stroke-width:1" />
  <polyline points="36.505,27.5028 32.505,27.5028" style="fill:none;stroke:black;stroke-width:1" />
  <text dominant-baseline="hanging" text-anchor="middle" transform="translate(52.3033,715.894)" font-family="Segoe UI" font-size="12" font-weight="400" fill="black">ahcbench</text>
  <text dominant-baseline="hanging" text-anchor="middle" transform="translate(83.8999,715.894)" font-family="Segoe UI" font-size="12" font-weight="400" fill="black">bh</text>
  <text dominant-baseline="hanging" text-anchor="middle" transform="translate(115.4965,715.894)" font-family="Segoe UI" font-size="12" font-weight="400" fill="black">binarytree</text>
  <text dominant-baseline="hanging" text-anchor="middle" transform="translate(147.0931,715.894)" font-family="Segoe UI" font-size="12" font-weight="400" fill="black">bisort</text>
  <text dominant-baseline="hanging" text-anchor="middle" transform="translate(178.6898,715.894)" font-family="Segoe UI" font-size="12" font-weight="400" fill="black">couchbase</text>
  <text dominant-baseline="hanging" text-anchor="middle" transform="translate(210.2864,715.894)" font-family="Segoe UI" font-size="12" font-weight="400" fill="black">db</text>
  <text dominant-baseline="hanging" text-anchor="middle" transform="translate(241.883,715.894)" font-family="Segoe UI" font-size="12" font-weight="400" fill="black">euler</text>
  <text dominant-baseline="hanging" text-anchor="middle" transform="translate(273.4796,715.894)" font-family="Segoe UI" font-size="12" font-weight="400" fill="black">except</text>
  <text dominant-baseline="hanging" text-anchor="middle" transform="translate(305.0762,715.894)" font-family="Segoe UI" font-size="12" font-weight="400" fill="black">fsharp</text>
  <text dominant-baseline="hanging" text-anchor="middle" transform="translate(336.6728,715.894)" font-family="Segoe UI" font-size="12" font-weight="400" fill="black">grandetracer</text>
  <text dominant-baseline="hanging" text-anchor="middle" transform="translate(368.2694,715.894)" font-family="Segoe UI" font-size="12" font-weight="400" fill="black">graph4</text>
  <text dominant-baseline="hanging" text-anchor="middle" transform="translate(399.866,715.894)" font-family="Segoe UI" font-size="12" font-weight="400" fill="black">graph8</text>
  <text dominant-baseline="hanging" text-anchor="middle" transform="translate(431.4627,715.894)" font-family="Segoe UI" font-size="12" font-weight="400" fill="black">hash</text>
  <text dominant-baseline="hanging" text-anchor="middle" transform="translate(463.0593,715.894)" font-family="Segoe UI" font-size="12" font-weight="400" fill="black">health</text>
  <text dominant-baseline="hanging" text-anchor="middle" transform="translate(494.6559,715.894)" font-family="Segoe UI" font-size="12" font-weight="400" fill="black">ipy</text>
  <text dominant-baseline="hanging" text-anchor="middle" transform="translate(526.2525,715.894)" font-family="Segoe UI" font-size="12" font-weight="400" fill="black">lcscbench</text>
  <text dominant-baseline="hanging" text-anchor="middle" transform="translate(557.8491,715.894)" font-family="Segoe UI" font-size="12" font-weight="400" fill="black">lists</text>
  <text dominant-baseline="hanging" text-anchor="middle" transform="translate(589.4457,715.894)" font-family="Segoe UI" font-size="12" font-weight="400" fill="black">mandelbrot</text>
  <text dominant-baseline="hanging" text-anchor="middle" transform="translate(621.0423,715.894)" font-family="Segoe UI" font-size="12" font-weight="400" fill="black">message</text>
  <text dominant-baseline="hanging" text-anchor="middle" transform="translate(652.639,715.894)" font-family="Segoe UI" font-size="12" font-weight="400" fill="black">msbiology</text>
  <text dominant-baseline="hanging" text-anchor="middle" transform="translate(684.2356,715.894)" font-family="Segoe UI" font-size="12" font-weight="400" fill="black">n-body</text>
  <text dominant-baseline="hanging" text-anchor="middle" transform="translate(715.8322,715.894)" font-family="Segoe UI" font-size="12" font-weight="400" fill="black">objinst</text>
  <text dominant-baseline="hanging" text-anchor="middle" transform="translate(747.4288,715.894)" font-family="Segoe UI" font-size="12" font-weight="400" fill="black">onelist</text>
  <text dominant-baseline="hanging" text-anchor="middle" transform="translate(779.0254,715.894)" font-family="Segoe UI" font-size="12" font-weight="400" fill="black">perimeter</text>
  <text dominant-baseline="hanging" text-anchor="middle" transform="translate(810.622,715.894)" font-family="Segoe UI" font-size="12" font-weight="400" fill="black">raytracer2</text>
  <text dominant-baseline="hanging" text-anchor="middle" transform="translate(842.2186,715.894)" font-family="Segoe UI" font-size="12" font-weight="400" fill="black">raytracer3</text>
  <text dominant-baseline="hanging" text-anchor="middle" transform="translate(873.8152,715.894)" font-family="Segoe UI" font-size="12" font-weight="400" fill="black">roslyn</text>
  <text dominant-baseline="hanging" text-anchor="middle" transform="translate(905.4119,715.894)" font-family="Segoe UI" font-size="12" font-weight="400" fill="black">sharpchess</text>
  <text dominant-baseline="hanging" text-anchor="middle" transform="translate(937.0085,715.894)" font-family="Segoe UI" font-size="12" font-weight="400" fill="black">sharpsatbench</text>
  <text dominant-baseline="hanging" text-anchor="middle" transform="translate(968.6051,715.894)" font-family="Segoe UI" font-size="12" font-weight="400" fill="black">specraytracer</text>
  <text dominant-baseline="hanging" text-anchor="middle" transform="translate(1000.2017,715.894)" font-family="Segoe UI" font-size="12" font-weight="400" fill="black">strcat</text>
  <polyline points="36.505,704.894 36.505,711.894" style="fill:none;stroke:black;stroke-width:1" />
  <polyline points="68.1016,704.894 68.1016,711.894" style="fill:none;stroke:black;stroke-width:1" />
  <polyline points="99.6982,704.894 99.6982,711.894" style="fill:none;stroke:black;stroke-width:1" />
  <polyline points="131.2948,704.894 131.2948,711.894" style="fill:none;stroke:black;stroke-width:1" />
  <polyline points="162.8915,704.894 162.8915,711.894" style="fill:none;stroke:black;stroke-width:1" />
  <polyline points="194.4881,704.894 194.4881,711.894" style="fill:none;stroke:black;stroke-width:1" />
  <polyline points="226.0847,704.894 226.0847,711.894" style="fill:none;stroke:black;stroke-width:1" />
  <polyline points="257.6813,704.894 257.6813,711.894" style="fill:none;stroke:black;stroke-width:1" />
  <polyline points="289.2779,704.894 289.2779,711.894" style="fill:none;stroke:black;stroke-width:1" />
  <polyline points="320.8745,704.894 320.8745,711.894" style="fill:none;stroke:black;stroke-width:1" />
  <polyline points="352.4711,704.894 352.4711,711.894" style="fill:none;stroke:black;stroke-width:1" />
  <polyline points="384.0677,704.894 384.0677,711.894" style="fill:none;stroke:black;stroke-width:1" />
  <polyline points="415.6644,704.894 415.6644,711.894" style="fill:none;stroke:black;stroke-width:1" />
  <polyline points="447.261,704.894 447.261,711.894" style="fill:none;stroke:black;stroke-width:1" />
  <polyline points="478.8576,704.894 478.8576,711.894" style="fill:none;stroke:black;stroke-width:1" />
  <polyline points="510.4542,704.894 510.4542,711.894" style="fill:none;stroke:black;stroke-width:1" />
  <polyline points="542.0508,704.894 542.0508,711.894" style="fill:none;stroke:black;stroke-width:1" />
  <polyline points="573.6474,704.894 573.6474,711.894" style="fill:none;stroke:black;stroke-width:1" />
  <polyline points="605.244,704.894 605.244,711.894" style="fill:none;stroke:black;stroke-width:1" />
  <polyline points="636.8406,704.894 636.8406,711.894" style="fill:none;stroke:black;stroke-width:1" />
  <polyline points="668.4373,704.894 668.4373,711.894" style="fill:none;stroke:black;stroke-width:1" />
  <polyline points="700.0339,704.894 700.0339,711.894" style="fill:none;stroke:black;stroke-width:1" />
  <polyline points="731.6305,704.894 731.6305,711.894" style="fill:none;stroke:black;stroke-width:1" />
  <polyline points="763.2271,704.894 763.2271,711.894" style="fill:none;stroke:black;stroke-width:1" />
  <polyline points="794.8237,704.894 794.8237,711.894" style="fill:none;stroke:black;stroke-width:1" />
  <polyline points="826.4203,704.894 826.4203,711.894" style="fill:none;stroke:black;stroke-width:1" />
  <polyline points="858.0169,704.894 858.0169,711.894" style="fill:none;stroke:black;stroke-width:1" />
  <polyline points="889.6135,704.894 889.6135,711.894" style="fill:none;stroke:black;stroke-width:1" />
  <polyline points="921.2102,704.894 921.2102,711.894" style="fill:none;stroke:black;stroke-width:1" />
  <polyline points="952.8068,704.894 952.8068,711.894" style="fill:none;stroke:black;stroke-width:1" />
  <polyline points="984.4034,704.894 984.4034,711.894" style="fill:none;stroke:black;stroke-width:1" />
  <polyline points="1016,704.894 1016,711.894" style="fill:none;stroke:black;stroke-width:1" />
  <text dominant-baseline="middle" text-anchor="end" transform="translate(25.505,672.1292)" font-family="Segoe UI" font-size="12" font-weight="400" fill="black">0.9</text>
  <text dominant-baseline="middle" text-anchor="end" transform="translate(25.505,537.8321)" font-family="Segoe UI" font-size="12" font-weight="400" fill="black">0.95</text>
  <text dominant-baseline="middle" text-anchor="end" transform="translate(25.505,403.5349)" font-family="Segoe UI" font-size="12" font-weight="400" fill="black">1</text>
  <text dominant-baseline="middle" text-anchor="end" transform="translate(25.505,269.2377)" font-family="Segoe UI" font-size="12" font-weight="400" fill="black">1.05</text>
  <text dominant-baseline="middle" text-anchor="end" transform="translate(25.505,134.9406)" font-family="Segoe UI" font-size="12" font-weight="400" fill="black">1.1</text>
  <polyline points="36.505,672.1292 29.505,672.1292" style="fill:none;stroke:black;stroke-width:1" />
  <polyline points="36.505,537.8321 29.505,537.8321" style="fill:none;stroke:black;stroke-width:1" />
  <polyline points="36.505,403.5349 29.505,403.5349" style="fill:none;stroke:black;stroke-width:1" />
  <polyline points="36.505,269.2377 29.505,269.2377" style="fill:none;stroke:black;stroke-width:1" />
  <polyline points="36.505,134.9406 29.505,134.9406" style="fill:none;stroke:black;stroke-width:1" />
  <polygon points="44.4042,403.5349 52.3033,403.5349 52.3033,704.894 44.4042,704.894" style="fill:rgb(78,154,6);stroke:black;stroke-width:1" />
  <polyline points="48.3537,547.6882 48.3537,259.3816" style="fill:none;stroke:black;stroke-width:1" />
  <polyline points="46.7739,547.6882 49.9336,547.6882" style="fill:none;stroke:black;stroke-width:1" />
  <polyline points="46.7739,259.3816 49.9336,259.3816" style="fill:none;stroke:black;stroke-width:1" />
  <polygon points="76.0008,403.5349 83.8999,403.5349 83.8999,704.894 76.0008,704.894" style="fill:rgb(78,154,6);stroke:black;stroke-width:1" />
  <polyline points="79.9503,507.5203 79.9503,299.5495" style="fill:none;stroke:black;stroke-width:1" />
  <polyline points="78.3705,507.5203 81.5302,507.5203" style="fill:none;stroke:black;stroke-width:1" />
  <polyline points="78.3705,299.5495 81.5302,299.5495" style="fill:none;stroke:black;stroke-width:1" />
  <polygon points="107.5974,403.5349 115.4965,403.5349 115.4965,704.894 107.5974,704.894" style="fill:rgb(78,154,6);stroke:black;stroke-width:1" />
  <polyline points="111.547,447.8443 111.547,359.2255" style="fill:none;stroke:black;stroke-width:1" />
  <polyline points="109.9671,447.8443 113.1268,447.8443" style="fill:none;stroke:black;stroke-width:1" />
  <polyline points="109.9671,359.2255 113.1268,359.2255" style="fill:none;stroke:black;stroke-width:1" />
  <polygon points="139.194,403.5349 147.0931,403.5349 147.0931,704.894 139.194,704.894" style="fill:rgb(78,154,6);stroke:black;stroke-width:1" />
  <polyline points="143.1436,422.75 143.1436,384.3198" style="fill:none;stroke:black;stroke-width:1" />
  <polyline points="141.5637,422.75 144.7234,422.75" style="fill:none;stroke:black;stroke-width:1" />
  <polyline points="141.5637,384.3198 144.7234,384.3198" style="fill:none;stroke:black;stroke-width:1" />
  <polygon points="170.7906,403.5349 178.6898,403.5349 178.6898,704.894 170.7906,704.894" style="fill:rgb(78,154,6);stroke:black;stroke-width:1" />
  <polyline points="174.7402,429.3489 174.7402,377.7209" style="fill:none;stroke:black;stroke-width:1" />
  <polyline points="173.1604,429.3489 176.32,429.3489" style="fill:none;stroke:black;stroke-width:1" />
  <polyline points="173.1604,377.7209 176.32,377.7209" style="fill:none;stroke:black;stroke-width:1" />
  <polygon points="202.3872,403.5349 210.2864,403.5349 210.2864,704.894 202.3872,704.894" style="fill:rgb(78,154,6);stroke:black;stroke-width:1" />
  <polyline points="206.3368,484.343 206.3368,322.7267" style="fill:none;stroke:black;stroke-width:1" />
  <polyline points="204.757,484.343 207.9166,484.343" style="fill:none;stroke:black;stroke-width:1" />
  <polyline points="204.757,322.7267 207.9166,322.7267" style="fill:none;stroke:black;stroke-width:1" />
  <polygon points="233.9838,403.5349 241.883,403.5349 241.883,704.894 233.9838,704.894" style="fill:rgb(78,154,6);stroke:black;stroke-width:1" />
  <polyline points="237.9334,459.5512 237.9334,347.5186" style="fill:none;stroke:black;stroke-width:1" />
  <polyline points="236.3536,459.5512 239.5132,459.5512" style="fill:none;stroke:black;stroke-width:1" />
  <polyline points="236.3536,347.5186 239.5132,347.5186" style="fill:none;stroke:black;stroke-width:1" />
  <polygon points="265.5804,403.5349 273.4796,403.5349 273.4796,704.894 265.5804,704.894" style="fill:rgb(78,154,6);stroke:black;stroke-width:1" />
  <polyline points="269.53,439.592 269.53,367.4778" style="fill:none;stroke:black;stroke-width:1" />
  <polyline points="267.9502,439.592 271.1099,439.592" style="fill:none;stroke:black;stroke-width:1" />
  <polyline points="267.9502,367.4778 271.1099,367.4778" style="fill:none;stroke:black;stroke-width:1" />
  <polygon points="297.1771,403.5349 305.0762,403.5349 305.0762,704.894 297.1771,704.894" style="fill:rgb(78,154,6);stroke:black;stroke-width:1" />
  <polyline points="301.1266,425.1115 301.1266,381.9583" style="fill:none;stroke:black;stroke-width:1" />
  <polyline points="299.5468,425.1115 302.7065,425.1115" style="fill:none;stroke:black;stroke-width:1" />
  <polyline points="299.5468,381.9583 302.7065,381.9583" style="fill:none;stroke:black;stroke-width:1" />
  <polygon points="328.7737,403.5349 336.6728,403.5349 336.6728,704.894 328.7737,704.894" style="fill:rgb(78,154,6);stroke:black;stroke-width:1" />
  <polyline points="332.7232,425.9689 332.7232,381.1009" style="fill:none;stroke:black;stroke-width:1" />
  <polyline points="331.1434,425.9689 334.3031,425.9689" style="fill:none;stroke:black;stroke-width:1" />
  <polyline points="331.1434,381.1009 334.3031,381.1009" style="fill:none;stroke:black;stroke-width:1" />
  <polygon points="360.3703,403.5349 368.2694,403.5349 368.2694,704.894 360.3703,704.894" style="fill:rgb(78,154,6);stroke:black;stroke-width:1" />
  <polyline points="364.3199,474.7525 364.3199,332.3173" style="fill:none;stroke:black;stroke-width:1" />
  <polyline points="362.74,474.7525 365.8997,474.7525" style="fill:none;stroke:black;stroke-width:1" />
  <polyline points="362.74,332.3173 365.8997,332.3173" style="fill:none;stroke:black;stroke-width:1" />
  <polygon points="391.9669,403.5349 399.866,403.5349 399.866,704.894 391.9669,704.894" style="fill:rgb(78,154,6);stroke:black;stroke-width:1" />
  <polyline points="395.9165,485.6993 395.9165,321.3704" style="fill:none;stroke:black;stroke-width:1" />
  <polyline points="394.3366,485.6993 397.4963,485.6993" style="fill:none;stroke:black;stroke-width:1" />
  <polyline points="394.3366,321.3704 397.4963,321.3704" style="fill:none;stroke:black;stroke-width:1" />
  <polygon points="423.5635,403.5349 431.4627,403.5349 431.4627,704.894 423.5635,704.894" style="fill:rgb(78,154,6);stroke:black;stroke-width:1" />
  <polyline points="427.5131,491.8345 427.5131,315.2353" style="fill:none;stroke:black;stroke-width:1" />
  <polyline points="425.9333,491.8345 429.0929,491.8345" style="fill:none;stroke:black;stroke-width:1" />
  <polyline points="425.9333,315.2353 429.0929,315.2353" style="fill:none;stroke:black;stroke-width:1" />
  <polygon points="455.1601,403.5349 463.0593,403.5349 463.0593,704.894 455.1601,704.894" style="fill:rgb(78,154,6);stroke:black;stroke-width:1" />
  <polyline points="459.1097,531.4589 459.1097,275.6109" style="fill:none;stroke:black;stroke-width:1" />
  <polyline points="457.5299,531.4589 460.6895,531.4589" style="fill:none;stroke:black;stroke-width:1" />
  <polyline points="457.5299,275.6109 460.6895,275.6109" style="fill:none;stroke:black;stroke-width:1" />
  <polygon points="486.7567,403.5349 494.6559,403.5349 494.6559,704.894 486.7567,704.894" style="fill:rgb(78,154,6);stroke:black;stroke-width:1" />
  <polyline points="490.7063,494.0473 490.7063,313.0224" style="fill:none;stroke:black;stroke-width:1" />
  <polyline points="489.1265,494.0473 492.2861,494.0473" style="fill:none;stroke:black;stroke-width:1" />
  <polyline points="489.1265,313.0224 492.2861,313.0224" style="fill:none;stroke:black;stroke-width:1" />
  <polygon points="518.3533,403.5349 526.2525,403.5349 526.2525,704.894 518.3533,704.894" style="fill:rgb(78,154,6);stroke:black;stroke-width:1" />
  <polyline points="522.3029,466.3332 522.3029,340.7366" style="fill:none;stroke:black;stroke-width:1" />
  <polyline points="520.7231,466.3332 523.8828,466.3332" style="fill:none;stroke:black;stroke-width:1" />
  <polyline points="520.7231,340.7366 523.8828,340.7366" style="fill:none;stroke:black;stroke-width:1" />
  <polygon points="549.95,403.5349 557.8491,403.5349 557.8491,704.894 549.95,704.894" style="fill:rgb(78,154,6);stroke:black;stroke-width:1" />
  <polyline points="553.8995,424.4053 553.8995,382.6645" style="fill:none;stroke:black;stroke-width:1" />
  <polyline points="552.3197,424.4053 555.4794,424.4053" style="fill:none;stroke:black;stroke-width:1" />
  <polyline points="552.3197,382.6645 555.4794,382.6645" style="fill:none;stroke:black;stroke-width:1" />
  <polygon points="581.5466,403.5349 589.4457,403.5349 589.4457,704.894 581.5466,704.894" style="fill:rgb(78,154,6);stroke:black;stroke-width:1" />
  <polyline points="585.4961,444.1841 585.4961,362.8857" style="fill:none;stroke:black;stroke-width:1" />
  <polyline points="583.9163,444.1841 587.076,444.1841" style="fill:none;stroke:black;stroke-width:1" />
  <polyline points="583.9163,362.8857 587.076,362.8857" style="fill:none;stroke:black;stroke-width:1" />
  <polygon points="613.1432,403.5349 621.0423,403.5349 621.0423,704.894 613.1432,704.894" style="fill:rgb(78,154,6);stroke:black;stroke-width:1" />
  <polyline points="617.0928,487.3498 617.0928,319.7199" style="fill:none;stroke:black;stroke-width:1" />
  <polyline points="615.5129,487.3498 618.6726,487.3498" style="fill:none;stroke:black;stroke-width:1" />
  <polyline points="615.5129,319.7199 618.6726,319.7199" style="fill:none;stroke:black;stroke-width:1" />
  <polygon points="644.7398,403.5349 652.639,403.5349 652.639,704.894 644.7398,704.894" style="fill:rgb(78,154,6);stroke:black;stroke-width:1" />
  <polyline points="648.6894,421.6799 648.6894,385.3899" style="fill:none;stroke:black;stroke-width:1" />
  <polyline points="647.1095,421.6799 650.2692,421.6799" style="fill:none;stroke:black;stroke-width:1" />
  <polyline points="647.1095,385.3899 650.2692,385.3899" style="fill:none;stroke:black;stroke-width:1" />
  <polygon points="676.3364,403.5349 684.2356,403.5349 684.2356,704.894 676.3364,704.894" style="fill:rgb(78,154,6);stroke:black;stroke-width:1" />
  <polyline points="680.286,412.1158 680.286,394.954" style="fill:none;stroke:black;stroke-width:1" />
  <polyline points="678.7062,412.1158 681.8658,412.1158" style="fill:none;stroke:black;stroke-width:1" />
  <polyline points="678.7062,394.954 681.8658,394.954" style="fill:none;stroke:black;stroke-width:1" />
  <polygon points="707.933,403.5349 715.8322,403.5349 715.8322,704.894 707.933,704.894" style="fill:rgb(78,154,6);stroke:black;stroke-width:1" />
  <polyline points="711.8826,442.5556 711.8826,364.5142" style="fill:none;stroke:black;stroke-width:1" />
  <polyline points="710.3028,442.5556 713.4624,442.5556" style="fill:none;stroke:black;stroke-width:1" />
  <polyline points="710.3028,364.5142 713.4624,364.5142" style="fill:none;stroke:black;stroke-width:1" />
  <polygon points="739.5296,403.5349 747.4288,403.5349 747.4288,704.894 739.5296,704.894" style="fill:rgb(78,154,6);stroke:black;stroke-width:1" />
  <polyline points="743.4792,425.5085 743.4792,381.5613" style="fill:none;stroke:black;stroke-width:1" />
  <polyline points="741.8994,425.5085 745.059,425.5085" style="fill:none;stroke:black;stroke-width:1" />
  <polyline points="741.8994,381.5613 745.059,381.5613" style="fill:none;stroke:black;stroke-width:1" />
  <polygon points="771.1263,403.5349 779.0254,403.5349 779.0254,704.894 771.1263,704.894" style="fill:rgb(78,154,6);stroke:black;stroke-width:1" />
  <polyline points="775.0758,462.1334 775.0758,344.9364" style="fill:none;stroke:black;stroke-width:1" />
  <polyline points="773.496,462.1334 776.6557,462.1334" style="fill:none;stroke:black;stroke-width:1" />
  <polyline points="773.496,344.9364 776.6557,344.9364" style="fill:none;stroke:black;stroke-width:1" />
  <polygon points="802.7229,403.5349 810.622,403.5349 810.622,704.894 802.7229,704.894" style="fill:rgb(78,154,6);stroke:black;stroke-width:1" />
  <polyline points="806.6724,447.993 806.6724,359.0768" style="fill:none;stroke:black;stroke-width:1" />
  <polyline points="805.0926,447.993 808.2523,447.993" style="fill:none;stroke:black;stroke-width:1" />
  <polyline points="805.0926,359.0768 808.2523,359.0768" style="fill:none;stroke:black;stroke-width:1" />
  <polygon points="834.3195,403.5349 842.2186,403.5349 842.2186,704.894 834.3195,704.894" style="fill:rgb(78,154,6);stroke:black;stroke-width:1" />
  <polyline points="838.2691,424.9722 838.2691,382.0976" style="fill:none;stroke:black;stroke-width:1" />
  <polyline points="836.6892,424.9722 839.8489,424.9722" style="fill:none;stroke:black;stroke-width:1" />
  <polyline points="836.6892,382.0976 839.8489,382.0976" style="fill:none;stroke:black;stroke-width:1" />
  <polygon points="865.9161,403.5349 873.8152,403.5349 873.8152,704.894 865.9161,704.894" style="fill:rgb(78,154,6);stroke:black;stroke-width:1" />
  <polyline points="869.8657,463.8693 869.8657,343.2005" style="fill:none;stroke:black;stroke-width:1" />
  <polyline points="868.2858,463.8693 871.4455,463.8693" style="fill:none;stroke:black;stroke-width:1" />
  <polyline points="868.2858,343.2005 871.4455,343.2005" style="fill:none;stroke:black;stroke-width:1" />
  <polygon points="897.5127,403.5349 905.4119,403.5349 905.4119,704.894 897.5127,704.894" style="fill:rgb(78,154,6);stroke:black;stroke-width:1" />
  <polyline points="901.4623,416.0615 901.4623,391.0083" style="fill:none;stroke:black;stroke-width:1" />
  <polyline points="899.8824,416.0615 903.0421,416.0615" style="fill:none;stroke:black;stroke-width:1" />
  <polyline points="899.8824,391.0083 903.0421,391.0083" style="fill:none;stroke:black;stroke-width:1" />
  <polygon points="929.1093,403.5349 937.0085,403.5349 937.0085,704.894 929.1093,704.894" style="fill:rgb(78,154,6);stroke:black;stroke-width:1" />
  <polyline points="933.0589,467.7057 933.0589,339.364" style="fill:none;stroke:black;stroke-width:1" />
  <polyline points="931.4791,467.7057 934.6387,467.7057" style="fill:none;stroke:black;stroke-width:1" />
  <polyline points="931.4791,339.364 934.6387,339.364" style="fill:none;stroke:black;stroke-width:1" />
  <polygon points="960.7059,403.5349 968.6051,403.5349 968.6051,704.894 960.7059,704.894" style="fill:rgb(78,154,6);stroke:black;stroke-width:1" />
  <polyline points="964.6555,442.8712 964.6555,364.1986" style="fill:none;stroke:black;stroke-width:1" />
  <polyline points="963.0757,442.8712 966.2353,442.8712" style="fill:none;stroke:black;stroke-width:1" />
  <polyline points="963.0757,364.1986 966.2353,364.1986" style="fill:none;stroke:black;stroke-width:1" />
  <polygon points="992.3025,403.5349 1000.2017,403.5349 1000.2017,704.894 992.3025,704.894" style="fill:rgb(78,154,6);stroke:black;stroke-width:1" />
  <polyline points="996.2521,444.2275 996.2521,362.8423" style="fill:none;stroke:black;stroke-width:1" />
  <polyline points="994.6723,444.2275 997.8319,444.2275" style="fill:none;stroke:black;stroke-width:1" />
  <polyline points="994.6723,362.8423 997.8319,362.8423" style="fill:none;stroke:black;stroke-width:1" />
  <polygon points="52.3033,397.1067 60.2025,397.1067 60.2025,704.894 52.3033,704.894" style="fill:rgb(200,141,0);stroke:black;stroke-width:1" />
  <polyline points="56.2529,526.6489 56.2529,267.5644" style="fill:none;stroke:black;stroke-width:1" />
  <polyline points="54.6731,526.6489 57.8327,526.6489" style="fill:none;stroke:black;stroke-width:1" />
  <polyline points="54.6731,267.5644 57.8327,267.5644" style="fill:none;stroke:black;stroke-width:1" />
  <polygon points="83.8999,449.8707 91.7991,449.8707 91.7991,704.894 83.8999,704.894" style="fill:rgb(200,141,0);stroke:black;stroke-width:1" />
  <polyline points="87.8495,473.1029 87.8495,426.6386" style="fill:none;stroke:black;stroke-width:1" />
  <polyline points="86.2697,473.1029 89.4293,473.1029" style="fill:none;stroke:black;stroke-width:1" />
  <polyline points="86.2697,426.6386 89.4293,426.6386" style="fill:none;stroke:black;stroke-width:1" />
  <polygon points="115.4965,411.971 123.3957,411.971 123.3957,704.894 115.4965,704.894" style="fill:rgb(200,141,0);stroke:black;stroke-width:1" />
  <polyline points="119.4461,424.1501 119.4461,399.7918" style="fill:none;stroke:black;stroke-width:1" />
  <polyline points="117.8663,424.1501 121.0259,424.1501" style="fill:none;stroke:black;stroke-width:1" />
  <polyline points="117.8663,399.7918 121.0259,399.7918" style="fill:none;stroke:black;stroke-width:1" />
  <polygon points="147.0931,353.0428 154.9923,353.0428 154.9923,704.894 147.0931,704.894" style="fill:rgb(200,141,0);stroke:black;stroke-width:1" />
  <polyline points="151.0427,386.2972 151.0427,319.7883" style="fill:none;stroke:black;stroke-width:1" />
  <polyline points="149.4629,386.2972 152.6226,386.2972" style="fill:none;stroke:black;stroke-width:1" />
  <polyline points="149.4629,319.7883 152.6226,319.7883" style="fill:none;stroke:black;stroke-width:1" />
  <polygon points="178.6898,413.6988 186.5889,413.6988 186.5889,704.894 178.6898,704.894" style="fill:rgb(200,141,0);stroke:black;stroke-width:1" />
  <polyline points="182.6393,457.8283 182.6393,369.5693" style="fill:none;stroke:black;stroke-width:1" />
  <polyline points="181.0595,457.8283 184.2192,457.8283" style="fill:none;stroke:black;stroke-width:1" />
  <polyline points="181.0595,369.5693 184.2192,369.5693" style="fill:none;stroke:black;stroke-width:1" />
  <polygon points="210.2864,389.8725 218.1855,389.8725 218.1855,704.894 210.2864,704.894" style="fill:rgb(200,141,0);stroke:black;stroke-width:1" />
  <polyline points="214.2359,485.495 214.2359,294.25" style="fill:none;stroke:black;stroke-width:1" />
  <polyline points="212.6561,485.495 215.8158,485.495" style="fill:none;stroke:black;stroke-width:1" />
  <polyline points="212.6561,294.25 215.8158,294.25" style="fill:none;stroke:black;stroke-width:1" />
  <polygon points="241.883,411.1803 249.7821,411.1803 249.7821,704.894 241.883,704.894" style="fill:rgb(200,141,0);stroke:black;stroke-width:1" />
  <polyline points="245.8326,456.2679 245.8326,366.0927" style="fill:none;stroke:black;stroke-width:1" />
  <polyline points="244.2527,456.2679 247.4124,456.2679" style="fill:none;stroke:black;stroke-width:1" />
  <polyline points="244.2527,366.0927 247.4124,366.0927" style="fill:none;stroke:black;stroke-width:1" />
  <polygon points="273.4796,378.973 281.3788,378.973 281.3788,704.894 273.4796,704.894" style="fill:rgb(200,141,0);stroke:black;stroke-width:1" />
  <polyline points="277.4292,437.5587 277.4292,320.3874" style="fill:none;stroke:black;stroke-width:1" />
  <polyline points="275.8493,437.5587 279.009,437.5587" style="fill:none;stroke:black;stroke-width:1" />
  <polyline points="275.8493,320.3874 279.009,320.3874" style="fill:none;stroke:black;stroke-width:1" />
  <polygon points="305.0762,385.4233 312.9754,385.4233 312.9754,704.894 305.0762,704.894" style="fill:rgb(200,141,0);stroke:black;stroke-width:1" />
  <polyline points="309.0258,402.4014 309.0258,368.4452" style="fill:none;stroke:black;stroke-width:1" />
  <polyline points="307.446,402.4014 310.6056,402.4014" style="fill:none;stroke:black;stroke-width:1" />
  <polyline points="307.446,368.4452 310.6056,368.4452" style="fill:none;stroke:black;stroke-width:1" />
  <polygon points="336.6728,375.1514 344.572,375.1514 344.572,704.894 336.6728,704.894" style="fill:rgb(200,141,0);stroke:black;stroke-width:1" />
  <polyline points="340.6224,416.4048 340.6224,333.8979" style="fill:none;stroke:black;stroke-width:1" />
  <polyline points="339.0426,416.4048 342.2022,416.4048" style="fill:none;stroke:black;stroke-width:1" />
  <polyline points="339.0426,333.8979 342.2022,333.8979" style="fill:none;stroke:black;stroke-width:1" />
  <polygon points="368.2694,405.0293 376.1686,405.0293 376.1686,704.894 368.2694,704.894" style="fill:rgb(200,141,0);stroke:black;stroke-width:1" />
  <polyline points="372.219,537.294 372.219,272.7646" style="fill:none;stroke:black;stroke-width:1" />
  <polyline points="370.6392,537.294 373.7988,537.294" style="fill:none;stroke:black;stroke-width:1" />
  <polyline points="370.6392,272.7646 373.7988,272.7646" style="fill:none;stroke:black;stroke-width:1" />
  <polygon points="399.866,436.59 407.7652,436.59 407.7652,704.894 399.866,704.894" style="fill:rgb(200,141,0);stroke:black;stroke-width:1" />
  <polyline points="403.8156,526.6375 403.8156,346.5424" style="fill:none;stroke:black;stroke-width:1" />
  <polyline points="402.2358,526.6375 405.3955,526.6375" style="fill:none;stroke:black;stroke-width:1" />
  <polyline points="402.2358,346.5424 405.3955,346.5424" style="fill:none;stroke:black;stroke-width:1" />
  <polygon points="431.4627,501.5155 439.3618,501.5155 439.3618,704.894 431.4627,704.894" style="fill:rgb(200,141,0);stroke:black;stroke-width:1" />
  <polyline points="435.4122,579.3896 435.4122,423.6414" style="fill:none;stroke:black;stroke-width:1" />
  <polyline points="433.8324,579.3896 436.9921,579.3896" style="fill:none;stroke:black;stroke-width:1" />
  <polyline points="433.8324,423.6414 436.9921,423.6414" style="fill:none;stroke:black;stroke-width:1" />
  <polygon points="463.0593,344.6418 470.9584,344.6418 470.9584,704.894 463.0593,704.894" style="fill:rgb(200,141,0);stroke:black;stroke-width:1" />
  <polyline points="467.0089,534.5466 467.0089,154.7371" style="fill:none;stroke:black;stroke-width:1" />
  <polyline points="465.429,534.5466 468.5887,534.5466" style="fill:none;stroke:black;stroke-width:1" />
  <polyline points="465.429,154.7371 468.5887,154.7371" style="fill:none;stroke:black;stroke-width:1" />
  <polygon points="494.6559,384.7981 502.555,384.7981 502.555,704.894 494.6559,704.894" style="fill:rgb(200,141,0);stroke:black;stroke-width:1" />
  <polyline points="498.6055,465.8764 498.6055,303.7199" style="fill:none;stroke:black;stroke-width:1" />
  <polyline points="497.0256,465.8764 500.1853,465.8764" style="fill:none;stroke:black;stroke-width:1" />
  <polyline points="497.0256,303.7199 500.1853,303.7199" style="fill:none;stroke:black;stroke-width:1" />
  <polygon points="526.2525,389.5868 534.1517,389.5868 534.1517,704.894 526.2525,704.894" style="fill:rgb(200,141,0);stroke:black;stroke-width:1" />
  <polyline points="530.2021,444.0806 530.2021,335.0929" style="fill:none;stroke:black;stroke-width:1" />
  <polyline points="528.6222,444.0806 531.7819,444.0806" style="fill:none;stroke:black;stroke-width:1" />
  <polyline points="528.6222,335.0929 531.7819,335.0929" style="fill:none;stroke:black;stroke-width:1" />
  <polygon points="557.8491,398.9132 565.7483,398.9132 565.7483,704.894 557.8491,704.894" style="fill:rgb(200,141,0);stroke:black;stroke-width:1" />
  <polyline points="561.7987,418.7493 561.7987,379.077" style="fill:none;stroke:black;stroke-width:1" />
  <polyline points="560.2189,418.7493 563.3785,418.7493" style="fill:none;stroke:black;stroke-width:1" />
  <polyline points="560.2189,379.077 563.3785,379.077" style="fill:none;stroke:black;stroke-width:1" />
  <polygon points="589.4457,412.1506 597.3449,412.1506 597.3449,704.894 589.4457,704.894" style="fill:rgb(200,141,0);stroke:black;stroke-width:1" />
  <polyline points="593.3953,441.8826 593.3953,382.4187" style="fill:none;stroke:black;stroke-width:1" />
  <polyline points="591.8155,441.8826 594.9751,441.8826" style="fill:none;stroke:black;stroke-width:1" />
  <polyline points="591.8155,382.4187 594.9751,382.4187" style="fill:none;stroke:black;stroke-width:1" />
  <polygon points="621.0423,363.2152 628.9415,363.2152 628.9415,704.894 621.0423,704.894" style="fill:rgb(200,141,0);stroke:black;stroke-width:1" />
  <polyline points="624.9919,409.205 624.9919,317.2253" style="fill:none;stroke:black;stroke-width:1" />
  <polyline points="623.4121,409.205 626.5717,409.205" style="fill:none;stroke:black;stroke-width:1" />
  <polyline points="623.4121,317.2253 626.5717,317.2253" style="fill:none;stroke:black;stroke-width:1" />
  <polygon points="652.639,410.858 660.5381,410.858 660.5381,704.894 652.639,704.894" style="fill:rgb(200,141,0);stroke:black;stroke-width:1" />
  <polyline points="656.5885,432.0065 656.5885,389.7094" style="fill:none;stroke:black;stroke-width:1" />
  <polyline points="655.0087,432.0065 658.1684,432.0065" style="fill:none;stroke:black;stroke-width:1" />
  <polyline points="655.0087,389.7094 658.1684,389.7094" style="fill:none;stroke:black;stroke-width:1" />
  <polygon points="684.2356,399.2491 692.1347,399.2491 692.1347,704.894 684.2356,704.894" style="fill:rgb(200,141,0);stroke:black;stroke-width:1" />
  <polyline points="688.1851,414.4159 688.1851,384.0823" style="fill:none;stroke:black;stroke-width:1" />
  <polyline points="686.6053,414.4159 689.765,414.4159" style="fill:none;stroke:black;stroke-width:1" />
  <polyline points="686.6053,384.0823 689.765,384.0823" style="fill:none;stroke:black;stroke-width:1" />
  <polygon points="715.8322,320.8038 723.7313,320.8038 723.7313,704.894 715.8322,704.894" style="fill:rgb(200,141,0);stroke:black;stroke-width:1" />
  <polyline points="719.7818,444.1544 719.7818,197.4532" style="fill:none;stroke:black;stroke-width:1" />
  <polyline points="718.2019,444.1544 721.3616,444.1544" style="fill:none;stroke:black;stroke-width:1" />
  <polyline points="718.2019,197.4532 721.3616,197.4532" style="fill:none;stroke:black;stroke-width:1" />
  <polygon points="747.4288,410.2089 755.3279,410.2089 755.3279,704.894 747.4288,704.894" style="fill:rgb(200,141,0);stroke:black;stroke-width:1" />
  <polyline points="751.3784,528.5798 751.3784,291.8379" style="fill:none;stroke:black;stroke-width:1" />
  <polyline points="749.7985,528.5798 752.9582,528.5798" style="fill:none;stroke:black;stroke-width:1" />
  <polyline points="749.7985,291.8379 752.9582,291.8379" style="fill:none;stroke:black;stroke-width:1" />
  <polygon points="779.0254,383.2154 786.9246,383.2154 786.9246,704.894 779.0254,704.894" style="fill:rgb(200,141,0);stroke:black;stroke-width:1" />
  <polyline points="782.975,441.2486 782.975,325.1822" style="fill:none;stroke:black;stroke-width:1" />
  <polyline points="781.3951,441.2486 784.5548,441.2486" style="fill:none;stroke:black;stroke-width:1" />
  <polyline points="781.3951,325.1822 784.5548,325.1822" style="fill:none;stroke:black;stroke-width:1" />
  <polygon points="810.622,424.4526 818.5212,424.4526 818.5212,704.894 810.622,704.894" style="fill:rgb(200,141,0);stroke:black;stroke-width:1" />
  <polyline points="814.5716,447.9992 814.5716,400.906" style="fill:none;stroke:black;stroke-width:1" />
  <polyline points="812.9918,447.9992 816.1514,447.9992" style="fill:none;stroke:black;stroke-width:1" />
  <polyline points="812.9918,400.906 816.1514,400.906" style="fill:none;stroke:black;stroke-width:1" />
  <polygon points="842.2186,416.5537 850.1178,416.5537 850.1178,704.894 842.2186,704.894" style="fill:rgb(200,141,0);stroke:black;stroke-width:1" />
  <polyline points="846.1682,447.6029 846.1682,385.5044" style="fill:none;stroke:black;stroke-width:1" />
  <polyline points="844.5884,447.6029 847.748,447.6029" style="fill:none;stroke:black;stroke-width:1" />
  <polyline points="844.5884,385.5044 847.748,385.5044" style="fill:none;stroke:black;stroke-width:1" />
  <polygon points="873.8152,439.3442 881.7144,439.3442 881.7144,704.894 873.8152,704.894" style="fill:rgb(200,141,0);stroke:black;stroke-width:1" />
  <polyline points="877.7648,455.5257 877.7648,423.1627" style="fill:none;stroke:black;stroke-width:1" />
  <polyline points="876.185,455.5257 879.3446,455.5257" style="fill:none;stroke:black;stroke-width:1" />
  <polyline points="876.185,423.1627 879.3446,423.1627" style="fill:none;stroke:black;stroke-width:1" />
  <polygon points="905.4119,371.148 913.311,371.148 913.311,704.894 905.4119,704.894" style="fill:rgb(200,141,0);stroke:black;stroke-width:1" />
  <polyline points="909.3614,419.1555 909.3614,323.1405" style="fill:none;stroke:black;stroke-width:1" />
  <polyline points="907.7816,419.1555 910.9413,419.1555" style="fill:none;stroke:black;stroke-width:1" />
  <polyline points="907.7816,323.1405 910.9413,323.1405" style="fill:none;stroke:black;stroke-width:1" />
  <polygon points="937.0085,409.2351 944.9076,409.2351 944.9076,704.894 937.0085,704.894" style="fill:rgb(200,141,0);stroke:black;stroke-width:1" />
  <polyline points="940.958,443.7576 940.958,374.7126" style="fill:none;stroke:black;stroke-width:1" />
  <polyline points="939.3782,443.7576 942.5379,443.7576" style="fill:none;stroke:black;stroke-width:1" />
  <polyline points="939.3782,374.7126 942.5379,374.7126" style="fill:none;stroke:black;stroke-width:1" />
  <polygon points="968.6051,442.4236 976.5042,442.4236 976.5042,704.894 968.6051,704.894" style="fill:rgb(200,141,0);stroke:black;stroke-width:1" />
  <polyline points="972.5547,470.5197 972.5547,414.3274" style="fill:none;stroke:black;stroke-width:1" />
  <polyline points="970.9748,470.5197 974.1345,470.5197" style="fill:none;stroke:black;stroke-width:1" />
  <polyline points="970.9748,414.3274 974.1345,414.3274" style="fill:none;stroke:black;stroke-width:1" />
  <polygon points="1000.2017,388.0122 1008.1008,388.0122 1008.1008,704.894 1000.2017,704.894" style="fill:rgb(200,141,0);stroke:black;stroke-width:1" />
  <polyline points="1004.1513,415.5616 1004.1513,360.4629" style="fill:none;stroke:black;stroke-width:1" />
  <polyline points="1002.5714,415.5616 1005.7311,415.5616" style="fill:none;stroke:black;stroke-width:1" />
  <polyline points="1002.5714,360.4629 1005.7311,360.4629" style="fill:none;stroke:black;stroke-width:1" />
  <polygon points="36.505,8 1016,8 1016,704.894 36.505,704.894" style="fill:none;stroke:black;stroke-width:1" />
  <polygon points="448.511,733.947 603.994,733.947 603.994,760 448.511,760" style="fill:none;stroke:none;" />
  <text dominant-baseline="hanging" text-anchor="start" transform="translate(476.511,741.947)" font-family="Segoe UI" font-size="12" font-weight="400" fill="black">master</text>
  <polygon points="460.4898,742.9523 468.5322,742.9523 468.5322,750.9947 460.4898,750.9947" style="fill:rgb(78,154,6);stroke:black;stroke-width:1" />
  <text dominant-baseline="hanging" text-anchor="start" transform="translate(548.006,741.947)" font-family="Segoe UI" font-size="12" font-weight="400" fill="black">attribute-hot</text>
  <polygon points="531.9848,742.9523 540.0272,742.9523 540.0272,750.9947 531.9848,750.9947" style="fill:rgb(200,141,0);stroke:black;stroke-width:1" />
</svg>